HIERARCHY
ROOT Hips
{
	OFFSET 0.00000 0.00000 0.00000
	CHANNELS 6 Xposition Yposition Zposition Zrotation Yrotation Xrotation 
	JOINT LHipJoint
	{
		OFFSET 0 0 0
		CHANNELS 3 Zrotation Yrotation Xrotation
		JOINT LeftUpLeg
		{
			OFFSET 1.57338 -1.94743 0.52196
			CHANNELS 3 Zrotation Yrotation Xrotation
			JOINT LeftLeg
			{
				OFFSET 2.60333 -7.15259 0.00000
				CHANNELS 3 Zrotation Yrotation Xrotation
				JOINT LeftFoot
				{
					OFFSET 2.77855 -7.63400 0.00000
					CHANNELS 3 Zrotation Yrotation Xrotation
					JOINT LeftToeBase
					{
						OFFSET 0.19847 -0.54529 2.28466
						CHANNELS 3 Zrotation Yrotation Xrotation
						End Site
						{
							OFFSET 0.00000 -0.00000 1.17993
						}
					}
				}
			}
		}
	}
	JOINT RHipJoint
	{
		OFFSET 0 0 0
		CHANNELS 3 Zrotation Yrotation Xrotation
		JOINT RightUpLeg
		{
			OFFSET -1.61527 -1.94743 0.52196
			CHANNELS 3 Zrotation Yrotation Xrotation
			JOINT RightLeg
			{
				OFFSET -2.53829 -6.97390 0.00000
				CHANNELS 3 Zrotation Yrotation Xrotation
				JOINT RightFoot
				{
					OFFSET -2.80762 -7.71387 0.00000
					CHANNELS 3 Zrotation Yrotation Xrotation
					JOINT RightToeBase
					{
						OFFSET -0.30536 -0.83898 2.28801
						CHANNELS 3 Zrotation Yrotation Xrotation
						End Site
						{
							OFFSET -0.00000 -0.00000 1.21323
						}
					}
				}
			}
		}
	}
	JOINT LowerBack
	{
		OFFSET 0 0 0
		CHANNELS 3 Zrotation Yrotation Xrotation
		JOINT Spine
		{
			OFFSET -0.04381 1.99497 -0.19778
			CHANNELS 3 Zrotation Yrotation Xrotation
			JOINT Spine1
			{
				OFFSET -0.01959 2.01295 -0.04372
				CHANNELS 3 Zrotation Yrotation Xrotation
				JOINT Neck
				{
					OFFSET 0 0 0
					CHANNELS 3 Zrotation Yrotation Xrotation
					JOINT Neck1
					{
						OFFSET -0.05459 1.76913 0.09708
						CHANNELS 3 Zrotation Yrotation Xrotation
						JOINT Head
						{
							OFFSET 0.09461 1.77368 -0.11172
							CHANNELS 3 Zrotation Yrotation Xrotation
							End Site
							{
								OFFSET 0.03812 1.78157 -0.04834
							}
						}
					}
				}
				JOINT LeftShoulder
				{
					OFFSET 0 0 0
					CHANNELS 3 Zrotation Yrotation Xrotation
					JOINT LeftArm
					{
						OFFSET 3.50922 1.24034 -0.28866
						CHANNELS 3 Zrotation Yrotation Xrotation
						JOINT LeftForeArm
						{
							OFFSET 5.40188 -0.00000 0.00000
							CHANNELS 3 Zrotation Yrotation Xrotation
							JOINT LeftHand
							{
								OFFSET 3.68559 -0.00000 0.00000
								CHANNELS 3 Zrotation Yrotation Xrotation
								JOINT LeftFingerBase
								{
									OFFSET 0 0 0
									CHANNELS 3 Zrotation Yrotation Xrotation
									JOINT LeftHandIndex1
									{
										OFFSET 0.61753 -0.00000 0.00000
										CHANNELS 3 Zrotation Yrotation Xrotation
										End Site
										{
											OFFSET 0.49787 -0.00000 0.00000
										}
									}
								}
								JOINT LThumb
								{
									OFFSET 0 0 0
									CHANNELS 3 Zrotation Yrotation Xrotation
									End Site
									{
										OFFSET 0.50547 -0.00000 0.50547
									}
								}
							}
						}
					}
				}
				JOINT RightShoulder
				{
					OFFSET 0 0 0
					CHANNELS 3 Zrotation Yrotation Xrotation
					JOINT RightArm
					{
						OFFSET -2.95373 1.39649 -0.27346
						CHANNELS 3 Zrotation Yrotation Xrotation
						JOINT RightForeArm
						{
							OFFSET -6.10670 -0.00000 -0.00000
							CHANNELS 3 Zrotation Yrotation Xrotation
							JOINT RightHand
							{
								OFFSET -3.63052 -0.00000 0.00000
								CHANNELS 3 Zrotation Yrotation Xrotation
								JOINT RightFingerBase
								{
									OFFSET 0 0 0
									CHANNELS 3 Zrotation Yrotation Xrotation
									JOINT RightHandIndex1
									{
										OFFSET -0.58385 -0.00000 0.00000
										CHANNELS 3 Zrotation Yrotation Xrotation
										End Site
										{
											OFFSET -0.47071 -0.00000 0.00000
										}
									}
								}
								JOINT RThumb
								{
									OFFSET 0 0 0
									CHANNELS 3 Zrotation Yrotation Xrotation
									End Site
									{
										OFFSET -0.47790 -0.00000 0.47790
									}
								}
							}
						}
					}
				}
			}
		}
	}
}
MOTION
Frames: 13
Frame Time: .0083333
0.0796 18.4407 0.4133 -356.4430 -30.2604 -364.3150 0.0000 0.0000 0.0000 -17.2194 1.7376 -13.6220 3.1011 10.8569 31.7988 0.2585 14.4935 -23.1831 0.0420 -1.3231 -3.6383 0.0000 0.0000 0.0000 19.2287 1.8612 2.4221 -2.8335 -10.4205 30.3493 -3.3029 -26.6614 -50.7859 -0.0585 -1.5613 4.2948 1.8096 3.3447 6.3298 -1.0410 4.5415 1.0694 -2.4446 2.2474 -2.2113 -1.5598 5.2636 -13.5733 9.6411 6.5196 4.4449 3.6133 3.6846 3.1467 0.0000 -0.0000 0.0000 -76.5613 0.5766 37.3376 33.5057 -43.7151 -13.7703 -0.0000 0.0000 -8.8609 23.9063 23.0508 9.8463 -7.1250 0.0000 -0.0000 -5.5443 54.8543 -1.3450 0.0000 -0.0000 0.0000 86.9972 4.3567 37.6503 -13.0500 21.3604 -2.4715 0.0000 0.0000 23.4596 -39.5769 -2.2430 1.8529 7.1250 -0.0000 -0.0000 -10.5068 -32.7612 -3.1963
0.1192 18.4387 0.4709 -356.5950 -29.5460 -364.2730 0.0000 0.0000 0.0000 -17.3051 1.2019 -13.0618 2.9725 10.6504 31.1099 0.3044 14.3734 -23.4599 0.0251 -1.0223 -2.8101 0.0000 0.0000 0.0000 19.1776 1.5772 2.4246 -2.8763 -10.4920 30.5851 -3.2521 -26.8966 -50.8147 -0.0523 -1.4755 4.0582 1.8159 3.3677 6.2974 -1.0584 4.5724 1.0167 -2.4682 2.2619 -2.2441 -1.3588 5.1696 -13.5571 9.3648 6.3795 4.4646 3.4896 3.6058 3.1731 0.0000 -0.0000 0.0000 -76.9660 0.3210 37.1004 32.3776 -42.8462 -12.9969 -0.0000 0.0000 -8.8130 24.1174 23.0677 9.9491 -7.1250 0.0000 -0.0000 -5.3286 54.9146 -1.3003 0.0000 -0.0000 0.0000 87.0533 4.3623 37.6932 -12.9921 21.2756 -2.4504 0.0000 0.0000 23.2176 -39.4605 -2.4836 2.0429 7.1250 -0.0000 -0.0000 -10.4428 -33.0651 -3.0983
0.1569 18.4373 0.5308 -356.8490 -28.8440 -364.1920 0.0000 0.0000 0.0000 -17.2816 1.0114 -12.6146 2.8799 10.4981 30.6053 0.3733 13.7991 -23.4065 0.0144 -0.7748 -2.1293 0.0000 0.0000 0.0000 19.2363 1.2880 2.4159 -2.9308 -10.5822 30.8835 -3.2109 -27.1095 -50.8586 -0.0451 -1.3710 3.7703 1.8676 3.3885 6.2148 -1.0364 4.6033 1.0167 -2.4708 2.2780 -2.1941 -1.2794 5.0893 -13.7377 9.2525 6.2563 4.5857 3.4455 3.5477 3.2516 0.0000 -0.0000 0.0000 -77.4112 -0.0805 36.8145 31.1231 -41.8368 -12.1519 -0.0000 0.0000 -8.8200 24.1644 23.0108 9.9478 -7.1250 0.0000 -0.0000 -5.2596 54.8643 -1.2769 0.0000 -0.0000 0.0000 87.0617 4.4405 37.6394 -12.8933 21.1307 -2.4147 0.0000 0.0000 22.7705 -39.2856 -2.2865 1.8693 7.1250 -0.0000 -0.0000 -10.2772 -32.8103 -3.1121
0.1929 18.4396 0.5915 -356.8720 -28.0696 -364.2300 0.0000 0.0000 0.0000 -17.4966 1.0924 -12.2652 2.8166 10.3921 30.2560 0.4149 12.9393 -22.8054 0.0148 -0.7857 -2.1593 0.0000 0.0000 0.0000 19.0427 0.8947 2.3273 -3.0082 -10.7083 31.3023 -3.3165 -26.9904 -51.1067 -0.0462 -1.3867 3.8134 1.6418 3.3958 6.1374 -1.0382 4.5973 1.0114 -2.3418 2.2769 -2.1744 -1.2392 4.9980 -13.8153 9.1129 6.1328 4.6600 3.3940 3.4841 3.2987 0.0000 -0.0000 0.0000 -77.9282 -0.5137 36.4237 29.7928 -40.7152 -11.2742 -0.0000 0.0000 -8.3911 23.9922 22.7783 9.7769 -7.1250 0.0000 -0.0000 -5.3608 54.5850 -1.2651 0.0000 -0.0000 0.0000 87.0055 4.5264 37.7953 -12.7828 20.9682 -2.3750 0.0000 0.0000 21.9451 -38.7459 -2.4657 1.9773 7.1250 -0.0000 -0.0000 -9.8620 -33.0248 -2.9311
0.2302 18.4441 0.6496 -356.6990 -27.2286 -364.3510 0.0000 0.0000 0.0000 -17.8936 0.9661 -11.9083 2.7647 10.3041 29.9672 0.4407 12.1549 -22.1782 0.0178 -0.8603 -2.3646 0.0000 0.0000 0.0000 18.6680 0.5488 2.1721 -3.1124 -10.8747 31.8586 -3.4795 -26.7477 -51.4404 -0.0499 -1.4422 3.9664 1.2368 3.4078 6.0919 -1.0557 4.5864 0.9534 -2.1339 2.2729 -2.2400 -1.3554 4.8973 -13.7265 9.0300 6.0232 4.7391 3.3796 3.4241 3.3132 0.0000 -0.0000 0.0000 -78.5184 -0.7810 36.1010 28.4790 -39.5535 -10.4273 -0.0000 0.0000 -8.3653 24.5025 21.5305 9.4959 -7.1250 0.0000 -0.0000 -4.4328 53.3660 -0.9135 0.0000 -0.0000 0.0000 86.8878 4.4701 37.7624 -12.6841 20.8226 -2.3398 0.0000 0.0000 21.1563 -37.9902 -3.1282 2.4405 7.1250 -0.0000 -0.0000 -9.3189 -33.8354 -2.5807
0.2688 18.4449 0.7051 -356.4850 -26.3369 -364.4560 0.0000 0.0000 0.0000 -18.3145 0.5977 -11.5317 2.7058 10.2029 29.6362 0.4588 11.6232 -21.7782 0.0327 -1.1667 -3.2076 0.0000 0.0000 0.0000 18.2480 0.2031 1.9136 -3.2433 -11.0788 32.5462 -3.7037 -26.3409 -51.8423 -0.0606 -1.5883 4.3692 0.8448 3.4289 6.0311 -1.1164 4.5872 0.8954 -1.9773 2.2752 -2.2916 -1.5261 4.7769 -13.5699 9.0253 5.8979 4.7224 3.3923 3.3557 3.2851 -0.0000 0.0000 0.0000 -79.0981 -1.0448 35.6973 27.2415 -38.4085 -9.6488 -0.0000 0.0000 -8.1654 25.2022 20.7526 9.4671 -7.1250 0.0000 -0.0000 -3.4919 52.6695 -0.6597 -0.0000 0.0000 0.0000 86.7863 4.3658 37.5502 -12.6031 20.7029 -2.3111 0.0000 0.0000 20.3514 -37.2099 -3.7516 2.8443 7.1250 -0.0000 -0.0000 -8.7372 -34.5821 -2.2563
0.3062 18.4449 0.7602 -356.1790 -25.4002 -364.7110 0.0000 0.0000 0.0000 -18.8412 0.3021 -11.0335 2.6316 10.0733 29.2145 0.4655 11.2179 -21.4132 0.0511 -1.4586 -4.0116 0.0000 0.0000 0.0000 17.7301 -0.2293 1.6757 -3.4010 -11.3176 33.3585 -3.7525 -26.3567 -52.0129 -0.0628 -1.6169 4.4479 0.3666 3.4477 6.0660 -1.2117 4.5783 0.8984 -1.8118 2.2737 -2.3379 -1.7104 4.6413 -13.4906 9.0722 5.7450 4.7654 3.4256 3.2790 3.2876 0.0000 -0.0000 0.0000 -79.6325 -1.4430 35.2988 25.9003 -37.1101 -8.8274 -0.0000 0.0000 -7.8057 25.7944 20.5439 9.6259 -7.1250 0.0000 -0.0000 -2.8299 52.5565 -0.5266 0.0000 -0.0000 0.0000 86.6369 4.3220 37.5882 -12.4754 20.5137 -2.2661 0.0000 0.0000 19.2206 -36.4882 -3.6419 2.6899 7.1250 -0.0000 -0.0000 -8.1316 -34.4174 -2.1300
0.3447 18.4507 0.8141 -355.7910 -24.4516 -365.0380 0.0000 0.0000 0.0000 -19.4876 0.1100 -10.5296 2.5517 9.9313 28.7547 0.4420 10.8996 -20.8444 0.0862 -1.8942 -5.2134 0.0000 0.0000 0.0000 17.0927 -0.7219 1.3744 -3.5817 -11.5819 34.2685 -3.6681 -26.6306 -51.9587 -0.0595 -1.5738 4.3292 -0.1545 3.4620 6.2125 -1.3320 4.5578 0.8623 -1.6568 2.2658 -2.4883 -1.9312 4.5095 -13.4287 9.1305 5.5938 4.9405 3.4722 3.2059 3.3316 -0.0000 0.0000 0.0000 -80.2001 -1.7647 34.9227 24.4624 -35.6494 -7.9744 -0.0000 0.0000 -7.5103 26.0788 20.5156 9.7332 -7.1250 0.0000 -0.0000 -2.5309 52.5795 -0.4723 -0.0000 0.0000 0.0000 86.5224 4.1656 37.3355 -12.3317 20.3002 -2.2160 0.0000 0.0000 18.3118 -35.8353 -3.1082 2.2424 7.1250 -0.0000 -0.0000 -7.5529 -33.7401 -2.1011
0.3846 18.4587 0.8660 -355.3730 -23.5489 -365.2870 0.0000 0.0000 0.0000 -20.1844 -0.0741 -10.1167 2.4804 9.8021 28.3384 0.4422 10.4706 -20.3973 0.1236 -2.2666 -6.2429 0.0000 0.0000 0.0000 16.3936 -1.0837 0.9626 -3.7825 -11.8652 35.2567 -3.5817 -26.8221 -51.8340 -0.0642 -1.6350 4.4980 -0.6681 3.5064 6.2899 -1.4747 4.5761 0.8171 -1.5278 2.2780 -2.6061 -2.1114 4.3295 -13.4399 9.0879 5.3740 5.1785 3.4813 3.0971 3.4146 0.0000 -0.0000 0.0000 -80.7807 -2.1581 34.3035 23.0629 -34.1575 -7.1736 -0.0000 0.0000 -6.5306 25.7599 21.4260 9.9972 -7.1250 0.0000 -0.0000 -3.1015 53.4971 -0.6486 0.0000 -0.0000 0.0000 86.4164 4.1275 36.9096 -12.1068 19.9646 -2.1386 0.0000 0.0000 17.5489 -35.1702 -3.1456 2.2143 7.1250 -0.0000 -0.0000 -7.0108 -33.7642 -1.9442
0.4236 18.4686 0.9155 -355.2490 -22.5945 -365.2670 0.0000 0.0000 0.0000 -20.5679 -0.4634 -9.8450 2.4250 9.7003 28.0116 0.4673 10.0022 -20.1772 0.1300 -2.3243 -6.4027 0.0000 0.0000 0.0000 15.9892 -1.4351 0.3543 -4.0003 -12.1608 36.3032 -3.3977 -27.1297 -51.4893 -0.0784 -1.8064 4.9710 -0.9246 3.5369 6.2079 -1.5728 4.5974 0.7739 -1.4844 2.2907 -2.6166 -2.2408 4.1153 -13.5350 9.0302 5.0998 5.4247 3.4770 2.9632 3.5190 0.0000 0.0000 0.0000 -81.2725 -2.6566 33.5430 21.7581 -32.7026 -6.4547 -0.0000 0.0000 -5.1202 25.2621 22.8078 10.3661 -7.1250 0.0000 -0.0000 -4.0357 54.8726 -0.9798 0.0000 0.0000 0.0000 86.2290 4.2171 36.9544 -11.8478 19.5760 -2.0510 0.0000 0.0000 16.4193 -35.1038 -2.9706 2.0862 7.1250 -0.0000 -0.0000 -6.9445 -33.5499 -1.9619
0.4644 18.4746 0.9661 -355.3080 -21.5555 -365.1150 0.0000 0.0000 0.0000 -20.7730 -1.0190 -9.6025 2.3776 9.6118 27.7287 0.5082 9.4276 -20.0332 0.0955 -1.9932 -5.4869 0.0000 0.0000 0.0000 15.7542 -1.8788 -0.3876 -4.2378 -12.4703 37.4166 -3.0382 -27.7312 -50.8232 -0.0921 -1.9574 5.3879 -1.0270 3.5099 6.0790 -1.6116 4.5557 0.7166 -1.4577 2.2710 -2.6093 -2.4044 3.9374 -13.5378 9.0126 4.8873 5.5196 3.4875 2.8560 3.5573 -0.0000 -0.0000 0.0000 -81.7720 -3.1340 32.8140 20.4898 -31.2279 -5.7831 -0.0000 0.0000 -4.3108 25.2480 23.1557 10.5058 -7.1250 0.0000 -0.0000 -4.1638 55.2391 -1.0480 -0.0000 -0.0000 0.0000 85.9259 4.2581 37.1785 -11.6286 19.2453 -1.9781 0.0000 0.0000 15.1558 -35.3172 -1.8168 1.2868 7.1250 -0.0000 -0.0000 -7.0341 -32.1538 -2.2263
0.5078 18.4808 1.0210 -355.2830 -20.5007 -364.9630 0.0000 0.0000 0.0000 -21.0968 -1.6003 -9.3677 2.3374 9.5360 27.4870 0.5392 8.8807 -19.8355 0.0718 -1.7292 -4.7578 0.0000 0.0000 0.0000 15.3624 -2.4104 -1.1961 -4.4894 -12.7846 38.5676 -2.6358 -28.2857 -49.9793 -0.0974 -2.0122 5.5393 -1.2052 3.4747 5.8925 -1.6277 4.5005 0.6677 -1.3604 2.2456 -2.5690 -2.6410 3.7454 -13.5370 8.9588 4.6743 5.5738 3.4973 2.7441 3.5819 -0.0000 0.0000 0.0000 -82.3431 -3.5532 32.2401 19.1957 -29.6611 -5.1273 -0.0000 0.0000 -4.3067 26.3021 22.5509 10.7335 -7.1250 0.0000 -0.0000 -2.8552 54.8113 -0.6885 -0.0000 0.0000 0.0000 85.5083 4.2434 37.2247 -11.4184 18.9268 -1.9094 0.0000 0.0000 14.2798 -35.0575 -1.0543 0.7397 7.1250 -0.0000 -0.0000 -6.7680 -31.2250 -2.2931
0.5513 18.4923 1.0736 -355.1410 -19.5464 -364.9100 0.0000 0.0000 0.0000 -21.5203 -1.9981 -9.1814 2.3095 9.4830 27.3183 0.5495 8.4733 -19.5680 0.0604 -1.5856 -4.3617 0.0000 0.0000 0.0000 14.8073 -2.9277 -1.9567 -4.7538 -13.1011 39.7480 -2.2749 -28.5758 -49.0223 -0.1098 -2.1361 5.8820 -1.4705 3.4921 5.8162 -1.6958 4.5063 0.6530 -1.2793 2.2509 -2.5566 -2.7644 3.5377 -13.7488 8.8394 4.4168 5.7863 3.4753 2.6159 3.6960 -0.0000 -0.0000 0.0000 -82.7883 -3.9387 31.9648 17.8924 -28.0192 -4.4986 -0.0000 0.0000 -5.2925 28.0778 21.1708 10.9048 -7.1250 0.0000 -0.0000 -0.6125 53.6777 -0.1307 -0.0000 -0.0000 0.0000 85.1297 4.2904 36.9612 -11.2262 18.6342 -1.8476 0.0000 0.0000 14.1901 -34.2307 -1.2285 0.8357 7.1250 -0.0000 -0.0000 -6.1217 -31.4298 -2.0416
